<svg width="144" height="144" viewBox="0 0 144 144" fill="none" xmlns="http://www.w3.org/2000/svg">
<circle cx="72" cy="72" r="72" fill="white"/>
<g clip-path="url(#clip0_77_469)">
<path d="M119.785 89.1988C119.72 88.7835 119.647 88.3127 119.578 87.7829L116.98 67.8476C116.731 64.3515 115.84 61.4789 114.254 59.0691C112.235 55.9998 109.084 53.7114 104.879 52.2571C102.766 45.1856 96.3879 40.3364 89.016 40.3364C84.9629 40.3364 81.1353 41.8266 78.0022 44.5821C74.9992 39.3816 69.9296 36.3535 64.0046 36.3535C57.5813 36.3535 52.0175 39.9989 50.0021 45.2715C49.3068 45.1241 48.5848 45.0503 47.8408 45.0503C44.4304 45.0503 40.7994 46.6626 38.128 49.3631C35.7411 51.7762 34.3086 54.818 34.0126 58.0473C30.4574 59.3894 28.1643 62.0723 28.1795 65.0172L28.1858 66.2213L26.3131 76.0051C26.3122 76.0093 26.3114 76.0132 26.3107 76.0173L24.3528 86.2461C23.8891 88.6679 23.7798 90.5119 24.6656 92.2202C25.4319 93.6981 26.756 94.7248 28.76 96.279L29.1635 96.5923C34.1181 100.442 40.8504 103.361 49.175 105.267C56.0052 106.831 63.763 107.646 71.7403 107.646C72.4925 107.646 73.2472 107.639 74.003 107.625C91.8544 107.28 108.219 102.971 116.711 96.3774C120.157 93.702 120.285 92.4317 119.785 89.1988ZM36.3055 61.2514C37.1395 61.0343 37.7183 60.277 37.7087 59.4153C37.6789 56.6782 38.7756 54.0451 40.7966 52.0018C42.7781 49.9983 45.4117 48.8025 47.8415 48.8025C48.7985 48.8025 49.6831 48.989 50.4717 49.3567C50.9954 49.6008 51.6018 49.5903 52.1167 49.328C52.6313 49.0657 52.9964 48.5812 53.1065 48.0142C54.1148 42.8222 59.3524 40.1057 64.0054 40.1057C69.239 40.1057 73.6248 43.2392 75.7377 48.4879C75.983 49.097 76.529 49.5335 77.1772 49.6391C77.8259 49.7447 78.4812 49.5034 78.9072 49.0031C81.6038 45.834 85.1942 44.0886 89.0168 44.0886C94.9914 44.0886 100.125 48.2265 101.502 54.1511C101.654 54.8047 102.143 55.3276 102.786 55.5222C111.059 58.028 112.781 63.1555 113.192 67.5358C111.033 70.4625 106.15 73.5045 99.9412 75.7636C94.3916 77.7832 85.0868 80.1901 72.2756 80.1901C49.1829 80.1901 32.8326 73.0125 31.9399 66.2745L31.9332 64.9977C31.9249 63.5131 33.8048 61.9026 36.3055 61.2514ZM116.221 91.6755C116.039 92.1486 114.856 93.0679 114.41 93.414C105.813 100.089 88.7636 103.913 71.711 103.912C56.1588 103.912 40.6035 100.73 31.4673 93.6296L31.0604 93.3139C27.4383 90.5051 27.3691 90.4515 28.039 86.9515L29.3798 79.9464C31.6549 81.7227 34.3272 83.2709 37.4728 84.6353C37.716 84.7409 37.9693 84.7909 38.2185 84.7909C38.9432 84.7909 39.6338 84.3685 39.9407 83.6609C40.353 82.7105 39.9167 81.6053 38.9663 81.1932C35.3757 79.6357 32.4955 77.8387 30.1893 75.719L30.8695 72.1648C33.2639 74.883 37.1847 77.3099 42.4282 79.2581C50.5586 82.2788 61.1582 83.9423 72.2752 83.9423C85.6332 83.9423 95.3906 81.4122 101.224 79.2897C106.472 77.3803 110.828 74.9542 113.784 72.3508L115.858 88.2675C115.933 88.842 116.009 89.3365 116.077 89.7726C116.223 90.7159 116.328 91.3971 116.221 91.6755Z" fill="#4D6BFC"/>
<path d="M44.0396 83.0919C44.0057 83.0814 43.9691 83.0711 43.9354 83.0627C42.9309 82.8114 41.9115 83.4225 41.6602 84.4277C41.415 85.4085 41.9908 86.4018 42.9527 86.6829C43.1304 86.7356 43.3099 86.7607 43.4867 86.7607C44.2938 86.7607 45.039 86.2359 45.2829 85.4233C45.579 84.4359 45.023 83.3955 44.0396 83.0919Z" fill="#4D6BFC"/>
<path d="M98.7603 54.7883C97.9483 51.2928 95.4825 48.5388 92.1651 47.4215C91.6592 47.251 91.1423 47.1203 90.6282 47.033C90.433 46.9998 90.2346 46.9722 90.0381 46.951C89.0078 46.8413 88.0829 47.5852 87.9717 48.6153C87.8605 49.6454 88.6054 50.5705 89.6357 50.6817C89.7563 50.6946 89.8785 50.7117 89.9985 50.7321C90.3201 50.7869 90.646 50.8692 90.967 50.9776C93.0739 51.6869 94.5821 53.3854 95.1052 55.6373C95.3064 56.5039 96.0782 57.0893 96.9311 57.0893C97.0715 57.0893 97.2146 57.0733 97.3571 57.0403C98.3666 56.8056 98.9947 55.7974 98.7603 54.7883Z" fill="#4D6BFC"/>
<path d="M86.3039 49.0656C85.7498 48.1902 84.5909 47.9294 83.7152 48.4835L83.6541 48.5228C82.7905 49.0895 82.5531 50.2439 83.116 51.1097C83.4747 51.6617 84.0769 51.9614 84.6916 51.9614C85.0411 51.9614 85.3949 51.8644 85.71 51.6616L85.7219 51.6541C86.5975 51.1002 86.8581 49.9411 86.3039 49.0656Z" fill="#4D6BFC"/>
<path d="M49.0588 59.5376C45.9553 59.5376 43.4304 62.0625 43.4304 65.1659C43.4304 68.2694 45.9553 70.7943 49.0588 70.7943C52.1622 70.7943 54.6871 68.2694 54.6871 65.1659C54.6871 62.0625 52.1622 59.5376 49.0588 59.5376ZM49.0588 67.0422C48.0243 67.0422 47.1826 66.2005 47.1826 65.1661C47.1826 64.1317 48.0245 63.29 49.0588 63.29C50.0932 63.29 50.9349 64.1317 50.9349 65.1661C50.9349 66.2005 50.0932 67.0422 49.0588 67.0422Z" fill="#4D6BFC"/>
<path d="M86.151 59.8959C82.5278 59.8959 79.5803 62.8438 79.5803 66.4668C79.5803 70.0901 82.5282 73.0377 86.151 73.0377C89.7744 73.0377 92.7219 70.0899 92.7219 66.4668C92.7219 62.8436 89.7741 59.8959 86.151 59.8959ZM86.151 69.2857C84.5968 69.2857 83.3325 68.0212 83.3325 66.467C83.3325 64.9128 84.5968 63.6483 86.151 63.6483C87.7052 63.6483 88.9697 64.9128 88.9697 66.467C88.9697 68.0212 87.7052 69.2857 86.151 69.2857Z" fill="#4D6BFC"/>
<path d="M67.1896 48.4606C64.0861 48.4606 61.5613 50.9855 61.5613 54.089C61.5613 57.1924 64.0861 59.7173 67.1896 59.7173C70.2931 59.7173 72.8179 57.1924 72.8179 54.089C72.8179 50.9855 70.2931 48.4606 67.1896 48.4606ZM67.1896 55.9653C66.1552 55.9653 65.3135 55.1236 65.3135 54.0891C65.3135 53.0547 66.1552 52.213 67.1896 52.213C68.224 52.213 69.0657 53.0547 69.0657 54.0891C69.0657 55.1236 68.224 55.9653 67.1896 55.9653Z" fill="#4D6BFC"/>
</g>
<defs>
<clipPath id="clip0_77_469">
<rect width="96" height="96" fill="white" transform="translate(24.0002 24.0001)"/>
</clipPath>
</defs>
</svg>
