<svg width="96" height="96" viewBox="0 0 96 96" fill="none" xmlns="http://www.w3.org/2000/svg">
<circle cx="48" cy="48" r="48" fill="white"/>
<g clip-path="url(#clip0_201_204)">
<path d="M77.2406 29.904C75.4585 28.1218 73.0891 27.1405 70.5685 27.1405C70.108 27.1405 69.6521 27.1732 69.2022 27.2385C69.6325 24.3298 68.6832 21.3467 66.534 19.1975C64.7516 17.4151 62.3819 16.4335 59.8611 16.4335C57.3404 16.4335 54.9706 17.4151 53.1882 19.1973C51.5175 20.868 50.5395 23.0871 50.434 25.4458C50.3465 27.4037 50.8642 29.3193 51.9052 30.9475L31.0309 51.8221C29.4182 50.6313 27.4715 49.9867 25.4364 49.9867C22.9159 49.9867 20.5462 50.9682 18.7641 52.7505C16.9819 54.5328 16.0001 56.9026 16.0001 59.4233C16.0001 61.9441 16.9819 64.3138 18.7641 66.0962C20.5462 67.8783 22.9156 68.8597 25.4361 68.8597C25.8966 68.8597 26.3525 68.827 26.8024 68.7617C26.372 71.6703 27.3214 74.6535 29.4706 76.8027C31.253 78.5851 33.6226 79.5666 36.1435 79.5666C38.6641 79.5666 41.034 78.5851 42.8164 76.8027C44.5747 75.0443 45.5561 72.7067 45.5797 70.2206C45.5994 68.1517 44.9546 66.1733 43.7449 64.5358L64.4866 43.7941C66.1861 45.2308 68.3169 46.0136 70.5677 46.0136C73.0884 46.0136 75.4582 45.032 77.2405 43.2497C80.9199 39.5701 80.9199 33.5833 77.2406 29.904ZM75.4727 41.4817C74.1625 42.7918 72.4206 43.5133 70.5677 43.5133C68.7149 43.5133 66.9729 42.7918 65.6626 41.4817C65.5757 41.3947 65.488 41.3021 65.4021 41.2062C65.173 40.9507 64.8487 40.8007 64.5056 40.7915C64.1611 40.7823 63.8306 40.9143 63.5877 41.1571L41.1665 63.5782C40.6852 64.0593 40.6774 64.8371 41.1487 65.328C43.7435 68.0301 43.6984 72.3847 41.0484 75.0348C39.7381 76.345 37.9961 77.0665 36.1434 77.0665C34.2905 77.0665 32.5486 76.345 31.2385 75.0348C29.2436 73.0401 28.6549 70.0677 29.7382 67.4627C29.9326 66.9953 29.8259 66.4567 29.468 66.0987C29.2289 65.8595 28.9091 65.7326 28.5839 65.7326C28.4222 65.7326 28.2592 65.764 28.1041 65.8285C27.2566 66.1808 26.359 66.3596 25.4362 66.3596C23.5836 66.3596 21.842 65.6382 20.5321 64.3283C19.2217 63.018 18.5002 61.2761 18.5002 59.4232C18.5002 57.5705 19.2217 55.8285 20.532 54.5182C21.842 53.2081 23.5837 52.4867 25.4364 52.4867C27.2364 52.4867 28.9419 53.1725 30.2387 54.4178C30.7295 54.889 31.5072 54.8813 31.9885 54.4L54.4276 31.961C54.8834 31.5052 54.9179 30.7777 54.5074 30.2808C52.2205 27.5128 52.4134 23.5078 54.9561 20.9651C56.2664 19.6548 58.0084 18.9333 59.8611 18.9333C61.714 18.9333 63.4559 19.6548 64.7661 20.9651C66.7609 22.96 67.3496 25.9322 66.2662 28.5373C66.0719 29.0047 66.1786 29.5433 66.5366 29.9013C66.8945 30.2593 67.4331 30.366 67.9006 30.1717C68.7481 29.8192 69.6459 29.6406 70.5686 29.6406C72.4212 29.6406 74.1629 30.362 75.4729 31.6718C78.1772 34.3765 78.1772 38.7772 75.4727 41.4817Z" fill="#4D6BFC"/>
<path d="M43.4101 47.3984C42.922 46.9103 42.1304 46.9103 41.6422 47.3984L35.8124 53.2281C35.3242 53.7163 35.3242 54.5078 35.8124 54.996C36.0565 55.2402 36.3762 55.3621 36.6962 55.3621C37.0161 55.3621 37.3361 55.24 37.5801 54.996L43.41 49.1663C43.8982 48.6781 43.8982 47.8868 43.4101 47.3984Z" fill="#4D6BFC"/>
<path d="M46.0661 44.7423C45.578 44.2542 44.7863 44.2542 44.2982 44.7423L44.2696 44.7711C43.7815 45.2592 43.7815 46.0508 44.2696 46.539C44.5137 46.7831 44.8336 46.9051 45.1535 46.9051C45.4734 46.9051 45.7932 46.783 46.0373 46.539L46.066 46.5102C46.5542 46.0221 46.5542 45.2305 46.0661 44.7423Z" fill="#4D6BFC"/>
</g>
<defs>
<clipPath id="clip0_201_204">
<rect width="64" height="64" fill="white" transform="translate(16.0001 16.0001)"/>
</clipPath>
</defs>
</svg>
