<svg width="113" height="99" viewBox="0 0 113 99" fill="none" xmlns="http://www.w3.org/2000/svg">
<rect width="113" height="99" fill="white"/>
<circle cx="56" cy="48" r="48" fill="white"/>
<g clip-path="url(#clip0_201_273)">
<path d="M87.8562 59.4659C87.8134 59.189 87.7648 58.8752 87.7186 58.5219L85.9869 45.2318C85.8208 42.901 85.2264 40.9859 84.1695 39.3794C82.8232 37.3332 80.7226 35.8076 77.9192 34.8381C76.5105 30.1238 72.2585 26.8909 67.3439 26.8909C64.6418 26.8909 62.0901 27.8844 60.0013 29.7214C57.9994 26.2544 54.6196 24.2357 50.6697 24.2357C46.3874 24.2357 42.6782 26.6659 41.3346 30.181C40.8711 30.0828 40.3897 30.0335 39.8937 30.0335C37.6201 30.0335 35.1995 31.1084 33.4185 32.9087C31.8273 34.5175 30.8723 36.5453 30.6749 38.6982C28.3048 39.5929 26.7761 41.3815 26.7862 43.3448L26.7905 44.1475L25.542 50.6701C25.5413 50.6728 25.5408 50.6755 25.5403 50.6782L24.2351 57.4974C23.926 59.1119 23.8531 60.3413 24.4436 61.4801C24.9545 62.4654 25.8372 63.1499 27.1732 64.186L27.4422 64.3949C30.7453 66.9612 35.2335 68.9071 40.7832 70.1778C45.3367 71.2206 50.5085 71.7643 55.8267 71.7643C56.3282 71.7643 56.8314 71.7594 57.3352 71.7497C69.2361 71.5203 80.1461 68.6472 85.8071 64.2516C88.1045 62.468 88.19 61.6211 87.8562 59.4659ZM32.2035 40.8343C32.7595 40.6896 33.1454 40.1847 33.139 39.6102C33.1192 37.7854 33.8503 36.0301 35.1977 34.6678C36.5186 33.3322 38.2744 32.535 39.8942 32.535C40.5322 32.535 41.122 32.6594 41.6477 32.9045C41.9968 33.0672 42.4011 33.0602 42.7443 32.8854C43.0875 32.7105 43.3308 32.3875 43.4042 32.0095C44.0765 28.5481 47.5682 26.7372 50.6702 26.7372C54.1593 26.7372 57.0831 28.8261 58.4917 32.3252C58.6552 32.7314 59.0192 33.0224 59.4513 33.0927C59.8838 33.1631 60.3207 33.0022 60.6047 32.6687C62.4024 30.556 64.796 29.3924 67.3444 29.3924C71.3275 29.3924 74.7501 32.151 75.6678 36.1007C75.7691 36.5365 76.0953 36.8851 76.5236 37.0148C82.0395 38.6853 83.187 42.1037 83.461 45.0239C82.0222 46.975 78.7664 49.003 74.6273 50.5091C70.9276 51.8555 64.7244 53.4601 56.1836 53.4601C40.7885 53.4601 29.8883 48.675 29.2932 44.183L29.2887 43.3318C29.2832 42.342 30.5364 41.2684 32.2035 40.8343ZM85.4806 61.117C85.3595 61.4324 84.5705 62.0453 84.2733 62.276C78.5421 66.7261 67.1757 69.2752 55.8072 69.2748C45.4391 69.2746 35.0689 67.1536 28.9781 62.4198L28.7068 62.2093C26.2921 60.3368 26.246 60.301 26.6926 57.9677L27.5865 53.2976C29.1032 54.4818 30.8847 55.5139 32.9818 56.4236C33.1439 56.4939 33.3128 56.5273 33.4789 56.5273C33.962 56.5273 34.4224 56.2457 34.627 55.7739C34.9019 55.1403 34.611 54.4036 33.9774 54.1288C31.5837 53.0905 29.6636 51.8925 28.1261 50.4793L28.5796 48.1099C30.1758 49.922 32.7897 51.54 36.2854 52.8387C41.7056 54.8526 48.772 55.9616 56.1834 55.9616C65.0887 55.9616 71.5936 54.2748 75.4825 52.8598C78.9812 51.5868 81.8849 49.9695 83.8557 48.2339L85.2384 58.845C85.2884 59.228 85.3393 59.5577 85.3844 59.8484C85.4816 60.4773 85.5519 60.9314 85.4806 61.117Z" fill="#4D6BFC"/>
<path d="M37.3597 55.3947C37.3371 55.3877 37.3127 55.3808 37.2902 55.3752C36.6206 55.2077 35.941 55.6151 35.7735 56.2852C35.61 56.939 35.9939 57.6013 36.6351 57.7887C36.7536 57.8238 36.8733 57.8405 36.9911 57.8405C37.5292 57.8405 38.026 57.4907 38.1886 56.9489C38.386 56.2907 38.0154 55.5971 37.3597 55.3947Z" fill="#4D6BFC"/>
<path d="M73.8402 36.5255C73.2988 34.1952 71.655 32.3592 69.4434 31.6143C69.1061 31.5007 68.7615 31.4136 68.4188 31.3553C68.2886 31.3332 68.1564 31.3148 68.0254 31.3007C67.3385 31.2276 66.7219 31.7234 66.6478 32.4102C66.5736 33.0969 67.0703 33.7137 67.7571 33.7878C67.8375 33.7964 67.919 33.8078 67.999 33.8214C68.2134 33.8579 68.4306 33.9128 68.6446 33.985C70.0492 34.4579 71.0547 35.5903 71.4035 37.0915C71.5376 37.6693 72.0521 38.0595 72.6207 38.0595C72.7143 38.0595 72.8097 38.0489 72.9047 38.0269C73.5777 37.8704 73.9965 37.1983 73.8402 36.5255Z" fill="#4D6BFC"/>
<path d="M65.5358 32.7105C65.1664 32.1268 64.3938 31.953 63.8101 32.3223L63.7693 32.3486C63.1936 32.7263 63.0353 33.496 63.4106 34.0732C63.6497 34.4412 64.0512 34.6409 64.4609 34.6409C64.6939 34.6409 64.9298 34.5763 65.1399 34.4411L65.1478 34.4361C65.7315 34.0668 65.9053 33.2941 65.5358 32.7105Z" fill="#4D6BFC"/>
<path d="M40.7057 39.6918C38.6367 39.6918 36.9535 41.375 36.9535 43.444C36.9535 45.513 38.6367 47.1962 40.7057 47.1962C42.7747 47.1962 44.458 45.513 44.458 43.444C44.458 41.375 42.7747 39.6918 40.7057 39.6918ZM40.7057 44.6949C40.0161 44.6949 39.455 44.1337 39.455 43.4441C39.455 42.7545 40.0162 42.1934 40.7057 42.1934C41.3954 42.1934 41.9565 42.7545 41.9565 43.4441C41.9565 44.1337 41.3954 44.6949 40.7057 44.6949Z" fill="#4D6BFC"/>
<path d="M65.4339 39.9307C63.0184 39.9307 61.0534 41.8959 61.0534 44.3113C61.0534 46.7267 63.0187 48.6919 65.4339 48.6919C67.8495 48.6919 69.8145 46.7266 69.8145 44.3113C69.8145 41.8958 67.8493 39.9307 65.4339 39.9307ZM65.4339 46.1905C64.3978 46.1905 63.5549 45.3475 63.5549 44.3114C63.5549 43.2753 64.3978 42.4323 65.4339 42.4323C66.47 42.4323 67.313 43.2753 67.313 44.3114C67.313 45.3475 66.47 46.1905 65.4339 46.1905Z" fill="#4D6BFC"/>
<path d="M52.793 32.3071C50.724 32.3071 49.0408 33.9904 49.0408 36.0594C49.0408 38.1283 50.724 39.8116 52.793 39.8116C54.862 39.8116 56.5452 38.1283 56.5452 36.0594C56.5452 33.9904 54.862 32.3071 52.793 32.3071ZM52.793 37.3102C52.1034 37.3102 51.5423 36.7491 51.5423 36.0595C51.5423 35.3699 52.1034 34.8087 52.793 34.8087C53.4826 34.8087 54.0437 35.3699 54.0437 36.0595C54.0437 36.7491 53.4826 37.3102 52.793 37.3102Z" fill="#4D6BFC"/>
</g>
<defs>
<clipPath id="clip0_201_273">
<rect width="64" height="64" fill="white" transform="translate(24.0001 16.0001)"/>
</clipPath>
</defs>
</svg>
