<svg width="96" height="96" viewBox="0 0 96 96" fill="none" xmlns="http://www.w3.org/2000/svg">
<circle cx="48" cy="48" r="48" fill="white"/>
<g clip-path="url(#clip0_201_207)">
<path d="M48.0001 47.1039C43.3121 47.1039 39.4981 50.931 39.4981 55.6353C39.4981 60.3395 43.3121 64.1666 48.0001 64.1666C52.6881 64.1666 56.5021 60.3394 56.5021 55.6353C56.5021 50.9311 52.6881 47.1039 48.0001 47.1039ZM48.0001 61.6666C44.6906 61.6666 41.9981 58.9609 41.9981 55.6353C41.9981 52.3095 44.6905 49.6039 48.0001 49.6039C51.3097 49.6039 54.0021 52.3095 54.0021 55.6353C54.0021 58.961 51.3096 61.6666 48.0001 61.6666Z" fill="#4D6BFC"/>
<path d="M48.0001 32.9295C45.2999 32.9295 43.1031 35.2634 43.1031 38.132C43.1031 41.0006 45.2999 43.3345 48.0001 43.3345C50.7004 43.3345 52.8971 41.0008 52.8971 38.132C52.8971 35.2633 50.7004 32.9295 48.0001 32.9295ZM48.0001 40.8344C46.6784 40.8344 45.6031 39.6221 45.6031 38.1319C45.6031 36.6418 46.6784 35.4294 48.0001 35.4294C49.3219 35.4294 50.3971 36.6416 50.3971 38.1319C50.3971 39.6221 49.3219 40.8344 48.0001 40.8344Z" fill="#4D6BFC"/>
<path d="M58.705 37.87C56.0047 37.87 53.808 40.2038 53.808 43.0725C53.808 45.9412 56.0047 48.2749 58.705 48.2749C61.4053 48.2749 63.602 45.9412 63.602 43.0725C63.602 40.2038 61.4051 37.87 58.705 37.87ZM58.705 45.7749C57.3832 45.7749 56.308 44.5627 56.308 43.0725C56.308 41.5824 57.3832 40.37 58.705 40.37C60.0268 40.37 61.102 41.5823 61.102 43.0725C61.1019 44.5627 60.0266 45.7749 58.705 45.7749Z" fill="#4D6BFC"/>
<path d="M37.2952 37.87C34.595 37.87 32.3982 40.2038 32.3982 43.0725C32.3982 45.9412 34.595 48.2749 37.2952 48.2749C39.9955 48.2749 42.1922 45.941 42.1922 43.0725C42.1922 40.2039 39.9955 37.87 37.2952 37.87ZM37.2952 45.7749C35.9735 45.7749 34.8982 44.5627 34.8982 43.0725C34.8982 41.5824 35.9735 40.37 37.2952 40.37C38.617 40.37 39.6922 41.5823 39.6922 43.0725C39.6922 44.5627 38.617 45.7749 37.2952 45.7749Z" fill="#4D6BFC"/>
<path d="M72.598 31.375H64.6251V23.4022C64.6251 19.3207 61.3046 16 57.223 16H38.7772C34.6956 16 31.3751 19.3207 31.3751 23.4022V31.375H23.4022C19.3207 31.375 16.0001 34.6955 16.0001 38.7772V57.2229C16.0001 61.3044 19.3207 64.625 23.4022 64.625H31.3751V72.5979C31.3751 76.6794 34.6956 80 38.7772 80H57.223C61.3046 80 64.6251 76.6794 64.6251 72.5979V64.625H72.598C76.6795 64.625 80.0001 61.3044 80.0001 57.2229V38.7772C80.0001 34.6955 76.6795 31.375 72.598 31.375ZM77.5001 57.2229C77.5001 59.9259 75.301 62.125 72.598 62.125H63.3751C62.6847 62.125 62.1251 62.6847 62.1251 63.375V72.5979C62.1251 75.3009 59.926 77.5 57.223 77.5H38.7772C36.0742 77.5 33.8751 75.3009 33.8751 72.5979V63.375C33.8751 62.6847 33.3155 62.125 32.6251 62.125H23.4022C20.6992 62.125 18.5001 59.9259 18.5001 57.2229V38.7772C18.5001 36.0742 20.6992 33.875 23.4022 33.875H32.6251C33.3155 33.875 33.8751 33.3154 33.8751 32.625V23.4022C33.8751 20.6992 36.0742 18.5 38.7772 18.5H57.223C59.926 18.5 62.1251 20.6992 62.1251 23.4022V32.625C62.1251 33.3154 62.6847 33.875 63.3751 33.875H72.598C75.301 33.875 77.5001 36.0742 77.5001 38.7772V57.2229Z" fill="#4D6BFC"/>
<path d="M54.0001 71.3479H45.756C45.0656 71.3479 44.506 71.9075 44.506 72.5979C44.506 73.2883 45.0656 73.8479 45.756 73.8479H54.0001C54.6905 73.8479 55.2501 73.2883 55.2501 72.5979C55.2501 71.9075 54.6905 71.3479 54.0001 71.3479Z" fill="#4D6BFC"/>
<path d="M42.0406 71.3479H42.0001C41.3097 71.3479 40.7501 71.9075 40.7501 72.5979C40.7501 73.2883 41.3097 73.8479 42.0001 73.8479H42.0406C42.731 73.8479 43.2906 73.2883 43.2906 72.5979C43.2906 71.9075 42.731 71.3479 42.0406 71.3479Z" fill="#4D6BFC"/>
<path d="M54.0001 22.1522H53.9596C53.2693 22.1522 52.7096 22.7118 52.7096 23.4022C52.7096 24.0925 53.2693 24.6522 53.9596 24.6522H54.0001C54.6905 24.6522 55.2501 24.0925 55.2501 23.4022C55.2501 22.7118 54.6905 22.1522 54.0001 22.1522Z" fill="#4D6BFC"/>
<path d="M50.2442 22.1522H42.0001C41.3097 22.1522 40.7501 22.7118 40.7501 23.4022C40.7501 24.0925 41.3097 24.6522 42.0001 24.6522H50.2442C50.9346 24.6522 51.4942 24.0925 51.4942 23.4022C51.4942 22.7118 50.9346 22.1522 50.2442 22.1522Z" fill="#4D6BFC"/>
</g>
<defs>
<clipPath id="clip0_201_207">
<rect width="64" height="64" fill="white" transform="translate(16.0001 16)"/>
</clipPath>
</defs>
</svg>
