<svg width="707" height="340" viewBox="0 0 707 340" fill="none" xmlns="http://www.w3.org/2000/svg">
<g opacity="0.54">
<g opacity="0.54">
<g opacity="0.53">
<path opacity="0.47" d="M705.796 137.004C702.968 110.628 689.993 86.374 669.6 69.341C636.373 41.5684 586.111 34.5685 542.06 40.9887C523.609 43.6779 505.312 48.4416 486.419 46.9423C458.865 44.7556 434.593 29.7649 409.506 18.7762C375.355 3.81815 336.209 -4.23244 299.904 2.27632C258.74 9.65612 224.989 37.5327 220.962 74.5194C219.137 91.2788 237.68 120.804 231.828 136.687C225.892 152.796 182.558 202.139 183.626 239.671C184.69 277.063 194.671 288.692 208.775 307.696H669.334C678.116 288.44 684.997 273.04 674.714 247.754C666.499 227.551 688.819 210.912 697.455 192.106C705.14 175.369 707.67 155.24 705.796 137.004Z" fill="#4D6BFC"/>
</g>
<path opacity="0.41" d="M182.591 144.467C181.618 142.591 181.031 140.541 180.863 138.436C180.696 136.331 180.951 134.214 181.615 132.209C182.279 130.204 183.337 128.351 184.729 126.759C186.12 125.167 187.816 123.868 189.717 122.939C197.759 118.92 213.194 119.251 217.3 127.122C221.406 134.993 209.028 141.713 203.97 149.033C196.917 159.244 186.697 152.337 182.591 144.467Z" fill="#4D6BFC"/>
</g>
<g opacity="0.43">
<path opacity="0.43" d="M654.988 285.667C659.476 263.829 652.282 245.201 650.488 223.788C648.789 203.515 656.146 186.465 660.227 167.157C663.86 149.973 662.649 130.509 658.09 113.62C651.864 90.5615 637.527 69.21 616.871 56.1935C584.685 35.9118 541.761 38.2999 506.208 52.2509C491.316 58.0943 476.893 65.8699 460.945 67.8365C437.685 70.7047 415.045 60.892 392.387 55.0052C361.543 46.9918 327.684 46.3972 298.582 59.0451C265.586 73.3856 242.125 105.758 244.866 141.413C246.108 157.568 252.461 173.512 250.212 189.561C247.931 205.839 238.051 219.456 232.821 234.787C225.682 255.712 225.032 286.464 236.509 307.696H647.262C650.815 300.731 653.413 293.322 654.988 285.667Z" fill="#4D6BFC"/>
</g>
<g opacity="0.47">
<path opacity="0.47" d="M578.61 217.248C577.217 203.383 570.588 190.566 560.066 181.395C543.043 166.679 517.293 162.969 494.725 166.371C485.272 167.796 475.898 170.321 466.219 169.526C452.102 168.367 439.667 160.424 426.814 154.601C409.318 146.675 389.263 142.409 370.663 145.858C349.574 149.769 332.283 164.54 330.22 184.139C329.285 193.019 338.784 208.664 335.786 217.081C332.745 225.617 310.544 251.763 311.091 271.65C311.637 291.464 316.75 297.626 323.976 307.696H559.93C564.429 297.492 567.954 289.332 562.686 275.933C558.477 265.228 569.912 256.411 574.336 246.446C578.274 237.577 579.57 226.912 578.61 217.248Z" fill="#4D6BFC"/>
</g>
</g>
<path d="M353.414 340C548.6 340 706.829 328.545 706.829 314.414C706.829 300.283 548.6 288.828 353.414 288.828C158.229 288.828 0 300.283 0 314.414C0 328.545 158.229 340 353.414 340Z" fill="#4D6BFC"/>
<path opacity="0.64" d="M353.414 326.223C300.115 326.223 250.004 325.082 212.316 323.013C153.146 319.763 153.146 316.014 153.146 314.415C153.146 312.813 153.146 309.064 212.316 305.814C250.003 303.745 300.113 302.605 353.414 302.605C406.715 302.605 456.825 303.745 494.514 305.814C553.683 309.064 553.683 312.813 553.683 314.415C553.683 316.014 553.683 319.763 494.514 323.013C456.824 325.082 406.713 326.223 353.414 326.223ZM154.751 314.415C158.381 319.314 238.532 324.518 353.414 324.518C468.296 324.518 548.449 319.314 552.079 314.415C548.45 309.515 468.298 304.309 353.414 304.309C238.53 304.309 158.379 309.515 154.751 314.415Z" fill="white"/>
<path d="M300.079 161.903L316.909 144.109L320.902 147.223C320.832 147.32 328.026 152.342 327.956 152.44C320.363 163.087 324.119 193.255 298.223 179.7C295.472 173.783 295.99 166.743 300.079 161.903Z" fill="#FCC6C0"/>
<path d="M505.536 138.089C505.292 136.973 504.624 135.996 503.672 135.363C502.72 134.73 501.558 134.489 500.432 134.693L494.553 107.681C495.311 107.491 496.004 107.104 496.563 106.559C497.122 106.014 497.526 105.331 497.734 104.58C497.942 103.829 497.946 103.037 497.747 102.283C497.548 101.53 497.152 100.842 496.599 100.291C496.047 99.7402 495.358 99.3451 494.602 99.1461C493.846 98.9471 493.051 98.9515 492.298 99.1587C491.545 99.3658 490.86 99.7685 490.314 100.326C489.767 100.883 489.379 101.574 489.187 102.33C488.699 101.722 488.059 101.255 487.33 100.975C486.602 100.695 485.813 100.612 485.042 100.735C484.271 100.859 483.547 101.183 482.943 101.676C482.339 102.169 481.877 102.813 481.604 103.541C481.331 104.27 481.256 105.059 481.387 105.826C481.519 106.593 481.852 107.311 482.352 107.908C482.853 108.506 483.503 108.96 484.237 109.225C484.971 109.49 485.762 109.556 486.53 109.417L492.409 136.429C491.651 136.619 490.957 137.006 490.398 137.551C489.84 138.096 489.436 138.779 489.228 139.53C489.02 140.281 489.015 141.073 489.214 141.827C489.414 142.58 489.81 143.268 490.362 143.819C490.915 144.37 491.604 144.765 492.36 144.964C493.115 145.163 493.91 145.158 494.663 144.951C495.417 144.744 496.101 144.341 496.648 143.784C497.194 143.227 497.583 142.536 497.774 141.78C498.396 142.557 499.263 143.101 500.235 143.324C501.207 143.547 502.225 143.435 503.125 143.007C504.025 142.579 504.753 141.86 505.191 140.967C505.628 140.074 505.75 139.059 505.536 138.089Z" fill="white"/>
<path opacity="0.25" d="M484.261 104.625C485.064 104.453 485.898 104.508 486.671 104.783C487.444 105.058 488.125 105.543 488.636 106.183C488.867 105.257 489.395 104.432 490.139 103.832C490.883 103.232 491.803 102.891 492.759 102.859C493.715 102.827 494.655 103.107 495.438 103.656C496.22 104.205 496.802 104.994 497.094 105.902C497.439 105.41 497.679 104.852 497.799 104.264C497.918 103.675 497.914 103.068 497.787 102.481C497.578 101.509 497.046 100.636 496.276 100.004C495.506 99.3726 494.545 99.0192 493.548 99.0017C492.551 98.9841 491.578 99.3035 490.786 99.9078C489.995 100.512 489.431 101.366 489.188 102.33C488.566 101.553 487.699 101.009 486.727 100.786C485.756 100.563 484.737 100.675 483.837 101.103C482.938 101.531 482.21 102.25 481.772 103.143C481.334 104.036 481.212 105.051 481.426 106.022C481.464 106.164 481.51 106.305 481.563 106.443C482.196 105.515 483.162 104.864 484.261 104.625Z" fill="#EFD7AC"/>
<path opacity="0.28" d="M505.537 138.089C505.456 137.738 505.332 137.398 505.168 137.077C504.898 137.808 504.438 138.455 503.835 138.95C503.232 139.445 502.507 139.772 501.736 139.895C500.965 140.019 500.174 139.936 499.446 139.655C498.717 139.373 498.077 138.904 497.591 138.294C497.372 139.168 496.889 139.954 496.206 140.545C495.524 141.136 494.676 141.504 493.777 141.597C492.879 141.691 491.973 141.507 491.182 141.07C490.392 140.633 489.756 139.963 489.36 139.153C489.06 139.943 488.996 140.803 489.176 141.629C489.385 142.601 489.918 143.474 490.687 144.106C491.457 144.738 492.419 145.091 493.415 145.108C494.412 145.126 495.386 144.807 496.177 144.202C496.969 143.598 497.532 142.744 497.775 141.78C498.397 142.557 499.264 143.101 500.236 143.324C501.208 143.547 502.226 143.435 503.126 143.007C504.026 142.579 504.754 141.86 505.192 140.967C505.629 140.074 505.751 139.059 505.537 138.089L505.537 138.089Z" fill="#EFD7AC"/>
<path d="M499.342 117.522L493.459 114.361L493.462 114.395L492.292 113.602C491.364 112.972 490.299 112.572 489.185 112.434C488.071 112.296 486.94 112.424 485.885 112.808L480.161 114.891C478.981 115.286 477.937 116.007 477.152 116.97C476.366 117.934 475.872 119.1 475.726 120.333L473.678 122.133L449.74 139.207L435.991 137.388L431.753 167.987L442.015 168.853C444.86 169.134 447.732 168.798 450.433 167.867C453.135 166.936 455.602 165.432 457.666 163.46L484.418 137.892C487.661 136.243 490.787 134.374 493.774 132.298L493.781 132.36L497.891 129.539C498.144 129.366 498.356 129.139 498.514 128.876C498.671 128.613 498.77 128.319 498.803 128.014L498.996 126.236C499.01 126.105 498.996 125.972 498.956 125.845C498.916 125.719 498.849 125.603 498.761 125.504C498.673 125.405 498.565 125.325 498.444 125.27C498.323 125.215 498.193 125.186 498.06 125.185L495.258 125.153L498.349 124.887C498.711 124.856 499.051 124.7 499.31 124.445C499.57 124.19 499.731 123.853 499.768 123.492L499.8 123.175C499.827 122.902 499.759 122.628 499.607 122.4C499.454 122.172 499.227 122.003 498.965 121.923L495.561 120.886L498.177 121.218C498.678 121.282 499.185 121.15 499.591 120.851C499.998 120.552 500.273 120.108 500.36 119.612C500.432 119.201 500.372 118.778 500.189 118.403C500.007 118.028 499.71 117.72 499.342 117.522ZM492.445 120.971L492.54 120.955L492.557 121.113C492.492 121.03 492.445 120.971 492.445 120.971Z" fill="#FCC6C0"/>
<path d="M449.74 139.207L435.167 143.333L435.99 137.388L449.74 139.207Z" fill="#F4BCB8"/>
<path d="M498.48 121.993C498.447 121.993 498.414 121.988 498.381 121.98L492.678 120.513C492.576 120.487 492.489 120.421 492.436 120.331C492.383 120.241 492.368 120.134 492.394 120.033C492.42 119.932 492.485 119.845 492.576 119.792C492.666 119.739 492.774 119.724 492.875 119.75L498.579 121.217C498.672 121.241 498.753 121.298 498.807 121.378C498.861 121.457 498.884 121.553 498.872 121.648C498.86 121.744 498.813 121.831 498.741 121.894C498.669 121.958 498.576 121.993 498.48 121.993Z" fill="#FFA399"/>
<path d="M498.083 125.635H498.079L492.188 125.566C492.136 125.566 492.085 125.555 492.037 125.535C491.99 125.514 491.946 125.485 491.91 125.448C491.874 125.411 491.845 125.367 491.826 125.319C491.806 125.271 491.797 125.22 491.797 125.168C491.797 125.116 491.807 125.065 491.827 125.017C491.847 124.969 491.877 124.925 491.914 124.889C491.951 124.853 491.996 124.824 492.044 124.805C492.093 124.787 492.144 124.778 492.196 124.779L498.087 124.848C498.192 124.849 498.292 124.891 498.365 124.965C498.438 125.039 498.479 125.139 498.479 125.243C498.478 125.348 498.436 125.447 498.362 125.521C498.288 125.594 498.188 125.635 498.083 125.635Z" fill="#FFA399"/>
<path d="M475.726 120.333L474.881 123.235L469.975 124.825L475.726 120.333Z" fill="#F4BCB8"/>
<path d="M441.864 66.7192C432.733 58.3417 431.363 64.7303 416.392 56.6483C409.508 52.9323 400.88 59.3071 396.402 64.9984C395.505 66.1361 394.711 67.3515 394.03 68.6301C393.026 70.5472 392.655 72.7325 392.971 74.8728C391.933 75.5152 391.064 76.3966 390.437 77.4432C389.811 78.4898 389.444 79.6711 389.369 80.8881C389.294 82.1052 389.512 83.3224 390.005 84.438C390.498 85.5536 391.252 86.5349 392.203 87.2998C391.363 88.4524 390.83 89.8001 390.657 91.2154C390.484 92.6307 390.675 94.0667 391.213 95.3875L391.902 97.0754C391.902 97.0754 414.479 99.1255 424.387 94.9129C425.007 95.2944 425.679 95.5852 426.382 95.7762C427.599 96.3834 428.941 96.6977 430.302 96.694C434.86 96.694 438.556 93.2643 438.556 89.0334C438.554 88.4426 438.478 87.8544 438.331 87.2821C440.423 86.5828 442.245 85.2504 443.544 83.4701C446.101 79.8536 448.765 73.0513 441.864 66.7192Z" fill="#721C37"/>
<path d="M424.333 81.2348C423.04 82.3102 421.409 82.8954 419.726 82.8874C418.517 82.9036 417.325 82.6054 416.266 82.0221C415.207 81.4388 414.318 80.5904 413.687 79.5603C412.99 81.1455 412.177 82.677 411.254 84.1422L407.335 81.7593C404.11 79.7987 400.044 80.5916 398.252 83.5303L398.073 83.8242C396.282 86.7627 397.443 90.734 400.668 92.6947L401.277 93.0651C400.815 93.1933 400.345 93.2911 399.87 93.3576C395.855 93.92 395.346 91.5474 391.474 95.3803L375.956 113.738C375.39 114.407 374.962 115.182 374.695 116.017C374.429 116.851 374.329 117.73 374.403 118.604C374.477 119.477 374.722 120.327 375.125 121.105C375.527 121.884 376.08 122.576 376.75 123.141L383.726 129.024C385.08 130.166 386.833 130.724 388.598 130.576C390.364 130.427 391.999 129.584 393.142 128.232L403.363 116.146L403.808 116.416C406.84 118.26 410.558 119.191 413.713 118.551C415.194 118.209 416.52 117.386 417.481 116.21C418.443 115.034 418.985 113.572 419.024 112.054L419.026 112.028L419.026 112.028L428.456 96.561L432.783 89.4642C431.083 88.5167 428.741 86.5907 424.333 81.2348Z" fill="#FCC6C0"/>
<path d="M423.128 95.65C422.965 95.8221 422.754 95.942 422.522 95.9946C422.29 96.0471 422.047 96.0298 421.825 95.945C421.603 95.8602 421.411 95.7116 421.274 95.518C421.136 95.3244 421.06 95.0945 421.053 94.8574C421.047 94.6204 421.111 94.3867 421.238 94.186C421.365 93.9853 421.548 93.8267 421.765 93.73C421.983 93.6334 422.224 93.6032 422.458 93.6431C422.693 93.6831 422.91 93.7915 423.082 93.9547C423.197 94.063 423.289 94.1928 423.354 94.3366C423.418 94.4804 423.453 94.6354 423.457 94.7929C423.462 94.9503 423.435 95.107 423.378 95.2541C423.322 95.4011 423.237 95.5357 423.128 95.65Z" fill="#441B14"/>
<path d="M421.089 97.0477C421.135 97.1105 421.197 97.1595 421.269 97.1894C421.341 97.2192 421.419 97.2287 421.496 97.2167C421.573 97.2048 421.645 97.172 421.705 97.1218C421.764 97.0716 421.808 97.0061 421.832 96.9324C421.93 96.6416 421.969 96.3346 421.947 96.0287C421.926 95.7229 421.844 95.4243 421.706 95.1501C421.569 94.8758 421.379 94.6313 421.146 94.4304C420.914 94.2295 420.644 94.0763 420.353 93.9794C420.246 93.9442 420.13 93.9527 420.029 94.0029C419.929 94.0531 419.853 94.141 419.818 94.2472C419.782 94.3534 419.79 94.4692 419.841 94.5693C419.891 94.6694 419.979 94.7456 420.085 94.7811C420.271 94.8429 420.444 94.9408 420.592 95.069C420.74 95.1972 420.862 95.3533 420.95 95.5283C421.037 95.7034 421.09 95.894 421.104 96.0892C421.118 96.2844 421.093 96.4805 421.031 96.6662C421.009 96.7298 421.003 96.7977 421.014 96.8641C421.024 96.9305 421.05 96.9935 421.089 97.0477Z" fill="#FFA399"/>
<path d="M429.077 95.9868L427.305 98.5754C427.051 99.1044 427.69 100.016 428.234 100.24L428.858 100.496C429.064 100.581 429.25 100.708 429.403 100.869C429.556 101.031 429.673 101.223 429.746 101.433C429.819 101.643 429.846 101.866 429.826 102.087C429.807 102.308 429.74 102.523 429.631 102.717L429.312 103.282C428.95 103.925 428.374 104.423 427.684 104.689C426.993 104.956 426.232 104.975 425.529 104.744L424.044 104.254" fill="#FCC6C0"/>
<path d="M423.675 104.579C423.712 104.603 423.752 104.622 423.793 104.636L425.391 105.164C426.259 105.448 427.2 105.424 428.052 105.094C428.904 104.765 429.616 104.151 430.065 103.357L430.407 102.749C430.559 102.478 430.653 102.177 430.68 101.868C430.708 101.558 430.669 101.246 430.567 100.952C430.465 100.658 430.301 100.39 430.087 100.163C429.873 99.9372 429.614 99.7589 429.325 99.6403L428.655 99.3647C428.339 99.1903 428.094 98.9111 427.963 98.5756C427.914 98.4809 427.9 98.3723 427.922 98.2682L429.788 95.5526C429.826 95.4972 429.853 95.4349 429.867 95.3693C429.881 95.3036 429.881 95.2359 429.869 95.17C429.856 95.1041 429.831 95.0414 429.794 94.9852C429.757 94.9291 429.71 94.8808 429.654 94.843C429.54 94.773 429.404 94.748 429.273 94.7727C429.141 94.7975 429.024 94.8702 428.943 94.9767L427.038 97.7596C426.947 97.9426 426.897 98.1433 426.891 98.3476C426.886 98.5519 426.926 98.7548 427.008 98.9422C427.24 99.5386 427.688 100.026 428.264 100.308L428.935 100.584C429.09 100.646 429.23 100.74 429.345 100.862C429.46 100.983 429.547 101.128 429.6 101.286C429.655 101.443 429.676 101.611 429.661 101.777C429.646 101.943 429.596 102.104 429.515 102.25L429.173 102.858C428.84 103.445 428.313 103.9 427.682 104.143C427.051 104.387 426.355 104.405 425.712 104.195L424.115 103.667C423.997 103.628 423.869 103.634 423.754 103.682C423.64 103.731 423.547 103.819 423.493 103.931C423.44 104.042 423.428 104.17 423.462 104.289C423.495 104.408 423.571 104.512 423.675 104.579L423.675 104.579Z" fill="#FFA399"/>
<path d="M419.113 112.123C419.207 112.12 419.298 112.09 419.375 112.037C419.452 111.983 419.511 111.908 419.546 111.821C419.58 111.734 419.589 111.639 419.57 111.547C419.551 111.455 419.505 111.371 419.439 111.305C418.993 110.884 418.429 110.608 417.823 110.515C417.216 110.421 416.595 110.513 416.042 110.78C415.928 110.836 415.841 110.935 415.801 111.055C415.76 111.175 415.769 111.306 415.825 111.42C415.881 111.534 415.98 111.621 416.1 111.661C416.22 111.702 416.352 111.694 416.466 111.639C416.839 111.461 417.257 111.398 417.666 111.46C418.075 111.521 418.456 111.704 418.76 111.984C418.806 112.03 418.862 112.066 418.922 112.09C418.983 112.114 419.048 112.125 419.113 112.123Z" fill="#FFA399"/>
<path d="M421.232 88.3314C421.679 88.7407 422.211 89.0471 422.79 89.2289C423.384 89.469 423.974 89.7256 424.479 89.9674C424.984 90.2094 425.554 90.5079 426.114 90.8199C426.617 91.1564 427.189 91.3783 427.788 91.4697C428.314 91.486 428.755 91.023 428.567 90.1036C428.355 89.4328 427.999 88.8162 427.524 88.2967C427.048 87.7772 426.465 87.3673 425.815 87.0956C425.201 86.7594 424.521 86.5632 423.823 86.5212C423.124 86.4792 422.425 86.5925 421.776 86.8529C420.958 87.2907 420.885 87.9299 421.232 88.3314Z" fill="#721C37"/>
<path d="M402.229 88.0466C402.309 88.1102 402.404 88.1502 402.505 88.1621L405.436 88.5128L405.901 84.1603C405.909 84.0893 405.903 84.0176 405.883 83.9491C405.862 83.8807 405.829 83.8168 405.784 83.7612C405.739 83.7056 405.684 83.6594 405.621 83.6252C405.558 83.591 405.489 83.5695 405.418 83.5619C405.347 83.5543 405.275 83.5608 405.207 83.581C405.138 83.6011 405.074 83.6346 405.018 83.6795C404.963 83.7243 404.917 83.7797 404.882 83.8423C404.848 83.905 404.827 83.9738 404.819 84.0448L404.472 87.3055L402.636 87.0859C402.518 87.0716 402.399 87.0958 402.297 87.1549C402.195 87.214 402.115 87.3047 402.069 87.4133C402.023 87.5219 402.013 87.6425 402.042 87.7568C402.071 87.8711 402.137 87.9728 402.229 88.0466H402.229Z" fill="#FFA399"/>
<path d="M417.57 99.2874C418.295 101.082 419.266 102.768 420.453 104.298C422.239 106.473 417.471 108.402 414.591 105.254C411.711 102.106 416.215 97.398 417.57 99.2874Z" fill="white"/>
<path d="M395.803 104.922C396.312 107.159 397.267 109.272 398.61 111.135C399.953 112.998 401.657 114.574 403.622 115.768L400.517 119.434C400.201 119.203 390.578 111.926 395.803 104.922Z" fill="#F4BCB8"/>
<path d="M321.878 147.561L317.122 144.268L315.405 143.019L342.938 119.395C345.087 116.701 347.563 114.282 350.308 112.195C351.559 111.273 352.896 110.476 354.302 109.813C360.813 106.77 368.368 107.485 374.705 110.118C381.623 112.992 387.421 117.936 393.355 122.393C394.045 122.911 394.738 123.422 395.433 123.924C398.139 125.873 401.162 127.732 404.041 129.763L407.253 130.212L434.368 134.001C434.913 134.077 435.405 134.366 435.736 134.803C436.068 135.241 436.212 135.791 436.137 136.334L431.484 169.933C431.341 170.96 430.803 171.891 429.982 172.528C429.162 173.164 428.124 173.456 427.091 173.341L402.089 170.562C390.511 187.205 384.862 195.532 377.961 205.994C373.523 212.722 292.675 193.566 294.553 190.999C302.34 180.354 317.868 160.978 325.88 150.496C325.953 150.401 321.805 147.656 321.878 147.561Z" fill="#4D6BFC"/>
<path d="M434.726 133.178L438.486 133.793C438.982 133.875 439.426 134.15 439.72 134.557C440.013 134.965 440.133 135.472 440.051 135.968L433.985 172.788C433.944 173.033 433.856 173.268 433.724 173.479C433.593 173.69 433.421 173.874 433.218 174.019C433.016 174.164 432.787 174.267 432.544 174.324C432.301 174.381 432.05 174.389 431.804 174.349L428.045 173.733C427.548 173.652 427.104 173.377 426.81 172.969C426.517 172.561 426.398 172.054 426.479 171.559L432.546 134.738C432.627 134.243 432.903 133.8 433.312 133.508C433.721 133.215 434.23 133.096 434.726 133.178Z" fill="#2C51B7"/>
<path d="M436.873 139.249C436.859 139.249 436.845 139.248 436.83 139.247L430.187 138.713C430.047 138.702 429.918 138.636 429.828 138.53C429.738 138.424 429.693 138.287 429.704 138.148C429.718 138.01 429.784 137.883 429.89 137.793C429.996 137.703 430.132 137.658 430.271 137.666L436.915 138.201C437.05 138.212 437.176 138.274 437.266 138.376C437.356 138.477 437.403 138.609 437.398 138.744C437.393 138.88 437.335 139.008 437.237 139.102C437.14 139.196 437.009 139.249 436.873 139.249Z" fill="#234C96"/>
<path d="M435.836 145.521C435.822 145.521 435.807 145.521 435.793 145.52L429.149 144.986C429.01 144.974 428.882 144.908 428.792 144.802C428.701 144.696 428.657 144.559 428.668 144.42C428.679 144.282 428.745 144.153 428.851 144.063C428.957 143.973 429.095 143.928 429.234 143.939L435.877 144.473C436.013 144.484 436.139 144.547 436.229 144.648C436.319 144.749 436.366 144.882 436.361 145.017C436.356 145.152 436.298 145.28 436.2 145.374C436.102 145.468 435.972 145.521 435.836 145.521Z" fill="#234C96"/>
<path d="M434.94 151.422C434.926 151.422 434.911 151.421 434.897 151.42L428.255 150.886C428.186 150.881 428.118 150.862 428.057 150.83C427.995 150.799 427.941 150.756 427.896 150.703C427.851 150.651 427.817 150.59 427.796 150.525C427.775 150.459 427.767 150.39 427.772 150.321C427.785 150.183 427.851 150.055 427.957 149.965C428.063 149.875 428.2 149.83 428.339 149.84L434.981 150.374C435.117 150.385 435.243 150.448 435.333 150.549C435.423 150.651 435.47 150.783 435.465 150.918C435.46 151.053 435.402 151.181 435.304 151.275C435.207 151.369 435.076 151.422 434.94 151.422V151.422Z" fill="#234C96"/>
<path d="M433.904 157.694C433.89 157.694 433.875 157.693 433.861 157.692L427.217 157.158C427.078 157.147 426.949 157.081 426.859 156.975C426.768 156.869 426.724 156.732 426.735 156.593C426.746 156.454 426.812 156.326 426.918 156.236C427.025 156.146 427.163 156.101 427.302 156.112L433.945 156.646C434.081 156.657 434.207 156.72 434.297 156.821C434.387 156.923 434.434 157.055 434.429 157.19C434.424 157.325 434.366 157.453 434.268 157.547C434.17 157.641 434.04 157.694 433.904 157.694V157.694Z" fill="#234C96"/>
<path d="M432.545 163.517C432.531 163.517 432.516 163.516 432.502 163.515L425.859 162.981C425.79 162.976 425.722 162.957 425.661 162.926C425.599 162.894 425.545 162.851 425.5 162.799C425.455 162.746 425.421 162.685 425.4 162.62C425.379 162.554 425.371 162.485 425.376 162.416C425.389 162.278 425.456 162.151 425.562 162.061C425.667 161.971 425.804 161.926 425.943 161.936L432.586 162.47C432.722 162.481 432.848 162.543 432.938 162.644C433.028 162.746 433.075 162.878 433.07 163.013C433.065 163.149 433.007 163.277 432.909 163.371C432.812 163.465 432.681 163.517 432.545 163.518V163.517Z" fill="#234C96"/>
<path d="M431.509 169.79C431.495 169.79 431.48 169.789 431.466 169.788L424.822 169.254C424.683 169.243 424.554 169.177 424.464 169.071C424.373 168.965 424.329 168.828 424.34 168.689C424.351 168.55 424.417 168.422 424.523 168.332C424.63 168.241 424.768 168.197 424.907 168.208L431.55 168.742C431.686 168.753 431.812 168.816 431.902 168.917C431.992 169.019 432.039 169.151 432.034 169.286C432.029 169.421 431.971 169.549 431.873 169.643C431.775 169.737 431.645 169.79 431.509 169.79Z" fill="#234C96"/>
<path opacity="0.75" d="M326.088 151.23L348.591 113.693L315.405 143.018L326.088 151.23Z" fill="#4265E5"/>
<path opacity="0.75" d="M406.983 170.633L392.814 167.513L387.109 191.916L401.646 171L406.983 170.633Z" fill="#4265E5"/>
<path d="M316.93 142.899L325.921 149.53C326.469 149.934 326.672 150.504 326.365 150.776L324.559 152.378C324.28 152.625 323.678 152.537 323.177 152.175L314.202 145.701C313.655 145.306 313.437 144.74 313.725 144.458L315.515 142.699C315.787 142.43 316.415 142.519 316.93 142.899Z" fill="#2C51B7"/>
<path opacity="0.75" d="M393.918 122.746L404.042 129.763L414.251 131.369L402.474 134.305L393.918 122.746Z" fill="#4265E5"/>
<path d="M414.897 131.894C414.868 131.894 414.839 131.892 414.81 131.887L399.906 129.456C399.768 129.433 399.645 129.357 399.563 129.244C399.482 129.13 399.449 128.99 399.471 128.852C399.494 128.715 399.57 128.592 399.684 128.511C399.797 128.429 399.939 128.396 400.076 128.419L414.981 130.851C415.111 130.872 415.229 130.942 415.31 131.045C415.391 131.149 415.431 131.28 415.42 131.411C415.41 131.542 415.35 131.665 415.253 131.754C415.156 131.844 415.029 131.893 414.897 131.894Z" fill="#2C51B7"/>
<path d="M267.856 284.726L267.783 284.656C265.701 282.652 263.405 280.881 260.936 279.376L258.541 277.917C257.856 277.528 257.047 277.419 256.282 277.611C255.518 277.803 254.857 278.283 254.439 278.949L232.302 312.026L232.41 312.098C233.773 312.977 235.359 313.451 236.983 313.465C238.606 313.479 240.2 313.032 241.579 312.176L263.421 297.39L267.856 284.726Z" fill="#FCC6C0"/>
<path d="M260.054 277.129L247.205 294.139L252.78 305.219C252.972 305.602 253.077 306.024 253.087 306.453C253.096 306.881 253.01 307.307 252.835 307.699C252.659 308.09 252.398 308.438 252.071 308.716C251.744 308.995 251.359 309.198 250.944 309.31L244.878 310.947L238.324 305.895L230.753 315.918C230.543 316.16 230.248 316.313 229.928 316.345C229.609 316.377 229.289 316.286 229.035 316.09L226.126 314.06L256.105 274.374L260.054 277.129Z" fill="#721C37"/>
<path d="M374.873 290.789L375.439 297.241C374.843 300.069 374.6 302.959 374.714 305.846L374.937 311.474L423.207 311.727L423.208 311.598C423.225 308.366 421.055 305.397 417.596 303.92L390.131 293.867L374.873 290.789Z" fill="#FCC6C0"/>
<path d="M373.705 309.456L395.061 309.521L400.618 298.432C400.81 298.048 401.085 297.712 401.424 297.447C401.762 297.183 402.156 296.997 402.576 296.902C402.995 296.808 403.431 296.808 403.85 296.902C404.27 296.996 404.664 297.182 405.002 297.446L409.952 301.308L409.823 309.566L422.407 309.604C422.727 309.627 423.026 309.771 423.243 310.007C423.46 310.243 423.579 310.552 423.574 310.873L423.687 314.412L373.859 314.259L373.705 309.456Z" fill="#721C37"/>
<path d="M399.025 206.73L294.737 190.082L292.308 194.507C289.402 199.801 288.016 205.792 288.304 211.82C288.592 217.849 290.542 223.682 293.939 228.676L310.772 272.174L270.448 276.744L261.148 303.172L337.205 298.527C340.011 298.198 342.712 297.262 345.119 295.784C347.525 294.306 349.579 292.322 351.137 289.971C352.696 287.62 353.72 284.958 354.14 282.171C354.56 279.385 354.365 276.54 353.569 273.836L344.101 241.698L376.557 240.444L377.541 240.538L371.653 294.48L404.407 295.214L415.701 230.136C416.164 227.505 416.099 224.809 415.51 222.204C414.92 219.599 413.818 217.136 412.267 214.959C410.715 212.782 408.746 210.933 406.473 209.521C404.2 208.108 401.668 207.16 399.025 206.73Z" fill="#252333"/>
<path d="M372.664 287.362L405.363 289.631C405.627 289.649 405.884 289.719 406.121 289.837C406.357 289.954 406.568 290.117 406.742 290.316C406.915 290.514 407.047 290.745 407.131 290.995C407.215 291.245 407.249 291.509 407.231 291.771L407.016 294.846C406.979 295.377 406.732 295.872 406.329 296.221C405.927 296.57 405.402 296.745 404.869 296.708L372.17 294.439C371.638 294.402 371.142 294.156 370.792 293.754C370.442 293.353 370.266 292.829 370.303 292.299L370.518 289.224C370.555 288.693 370.802 288.199 371.204 287.849C371.607 287.5 372.132 287.325 372.664 287.362L372.664 287.362Z" fill="#191826"/>
<path d="M272.831 276.27L265.738 304.185C265.607 304.701 265.275 305.143 264.817 305.416C264.359 305.688 263.811 305.767 263.293 305.637L260.297 304.88C259.78 304.749 259.336 304.419 259.062 303.962C258.789 303.505 258.71 302.958 258.841 302.442L265.934 274.527C266.065 274.011 266.396 273.569 266.855 273.296C267.313 273.024 267.861 272.945 268.378 273.075L271.375 273.832C271.892 273.963 272.336 274.293 272.609 274.75C272.882 275.207 272.962 275.754 272.831 276.27L272.831 276.27Z" fill="#191826"/>
<path d="M322.999 242.512C310.534 243.281 300.504 238.375 294.668 230.563L297.754 238.537C303.698 243.66 312.033 246.607 321.895 245.999L345.103 245.102L344.1 241.697L322.999 242.512Z" fill="#191826"/>
<path d="M418.881 208.684L415.454 199.778C415.167 199.032 414.7 198.368 414.096 197.844C413.491 197.319 412.766 196.951 411.986 196.771L403.068 194.716C402.788 194.709 402.521 194.709 402.252 194.708L402.566 194.424L390.544 187.942L379.38 203.476L389.041 205.064C389.045 205.212 389.051 205.358 389.06 205.499C389.112 206.284 389.379 207.04 389.832 207.684C390.285 208.328 390.907 208.835 391.629 209.151C393.447 209.939 395.408 210.349 397.39 210.357C399.373 210.365 401.336 209.969 403.161 209.196L403.895 211.638C404.744 214.452 406.536 216.892 408.971 218.548C409.112 218.646 409.279 218.7 409.451 218.703C409.623 218.707 409.792 218.66 409.938 218.568C410.083 218.477 410.198 218.345 410.269 218.189C410.339 218.032 410.363 217.859 410.335 217.69L408.572 207.085L411.332 216.114C411.462 216.538 411.698 216.921 412.019 217.229C412.339 217.537 412.732 217.759 413.162 217.873C413.388 217.934 413.626 217.941 413.855 217.893C414.084 217.845 414.299 217.742 414.48 217.595C414.662 217.447 414.806 217.259 414.9 217.045C414.994 216.831 415.036 216.597 415.022 216.364L414.451 207.393L414.851 213.68L416.767 213.071C417.203 212.932 417.605 212.707 417.95 212.408C418.295 212.109 418.575 211.743 418.773 211.332C418.971 210.921 419.082 210.474 419.101 210.019C419.12 209.564 419.045 209.109 418.881 208.684Z" fill="#FCC6C0"/>
<path d="M415.424 213.515C415.487 213.477 415.537 213.422 415.57 213.356C415.602 213.291 415.615 213.217 415.608 213.145L414.928 206.631C414.917 206.528 414.865 206.433 414.785 206.368C414.704 206.303 414.601 206.272 414.497 206.282C414.446 206.287 414.397 206.302 414.351 206.326C414.306 206.35 414.266 206.383 414.234 206.423C414.201 206.462 414.177 206.508 414.162 206.557C414.148 206.606 414.143 206.657 414.148 206.708L414.828 213.222C414.839 213.325 414.891 213.419 414.971 213.485C415.052 213.55 415.155 213.581 415.259 213.571C415.317 213.565 415.374 213.546 415.424 213.515Z" fill="#FCC6C0"/>
<path d="M409.973 207.845C410.043 207.802 410.098 207.737 410.13 207.661C410.161 207.584 410.167 207.5 410.147 207.42C410.121 207.32 410.057 207.233 409.968 207.18C409.879 207.126 409.772 207.11 409.671 207.135C409.671 207.135 408.898 207.323 408.037 207.55C407.987 207.563 407.94 207.585 407.9 207.616C407.859 207.647 407.824 207.685 407.799 207.73C407.773 207.774 407.756 207.823 407.75 207.874C407.743 207.924 407.747 207.976 407.761 208.025C407.788 208.125 407.853 208.21 407.943 208.262C408.033 208.314 408.14 208.328 408.241 208.302C409.093 208.078 409.86 207.891 409.862 207.891C409.901 207.881 409.938 207.865 409.973 207.845Z" fill="#FCC6C0"/>
<path d="M415.38 206.548C415.45 206.505 415.505 206.441 415.537 206.365C415.568 206.288 415.574 206.204 415.554 206.124C415.528 206.024 415.464 205.937 415.375 205.884C415.286 205.83 415.179 205.814 415.078 205.839C415.078 205.839 414.305 206.027 413.444 206.253C413.395 206.266 413.348 206.289 413.308 206.32C413.267 206.351 413.233 206.39 413.207 206.434C413.181 206.478 413.165 206.527 413.158 206.577C413.151 206.628 413.155 206.679 413.168 206.729C413.195 206.829 413.261 206.914 413.351 206.966C413.441 207.017 413.548 207.032 413.648 207.005C414.5 206.781 415.267 206.595 415.269 206.595C415.308 206.585 415.345 206.569 415.38 206.548Z" fill="#FCC6C0"/>
<path d="M403.709 209.861C403.783 209.816 403.84 209.747 403.87 209.665C403.901 209.584 403.903 209.495 403.876 209.412C403.753 208.955 403.687 208.485 403.681 208.013C403.681 207.909 403.64 207.81 403.567 207.736C403.494 207.663 403.394 207.622 403.29 207.622C403.186 207.622 403.086 207.663 403.013 207.736C402.939 207.809 402.898 207.908 402.898 208.012C402.904 208.564 402.981 209.114 403.129 209.646C403.147 209.703 403.178 209.755 403.219 209.798C403.26 209.841 403.311 209.874 403.367 209.894C403.422 209.915 403.482 209.923 403.542 209.917C403.601 209.911 403.658 209.892 403.709 209.861Z" fill="#FCC6C0"/>
<path d="M500.382 223.421C501.374 223.072 502.28 222.516 503.04 221.79L505.492 219.45L508.08 216.978L482.088 197.645C481.397 197.116 480.59 196.757 479.733 196.6C478.877 196.442 477.994 196.49 477.16 196.738L465.657 200.285C464.688 200.628 463.838 201.24 463.206 202.049C462.575 202.858 462.19 203.831 462.096 204.852C462.086 204.92 462.077 204.988 462.073 205.059C461.976 206.01 462.087 206.97 462.4 207.874C462.486 208.452 462.795 208.973 463.262 209.326C463.729 209.679 464.317 209.836 464.898 209.762L464.935 209.757C465.4 209.697 465.834 209.493 466.175 209.173C466.517 208.854 466.75 208.436 466.841 207.977C467.072 208.317 467.393 208.586 467.768 208.755C468.143 208.924 468.558 208.986 468.966 208.935L469.003 208.93C469.553 208.859 470.057 208.587 470.417 208.166C470.777 207.745 470.967 207.206 470.95 206.653L477.732 205.071L492.346 221.375C492.961 222.059 493.699 222.623 494.522 223.037C494.596 223.075 494.673 223.103 494.748 223.138C496.517 223.965 498.539 224.066 500.382 223.421Z" fill="#A83B3B"/>
<path d="M477.731 205.071L480.844 203.935L479.336 206.772L477.731 205.071Z" fill="#A83B3B"/>
<path d="M500.382 223.421C501.374 223.072 502.28 222.516 503.04 221.79L505.492 219.45L508.08 216.978L482.088 197.645C481.397 197.116 480.59 196.757 479.733 196.6C478.877 196.442 477.994 196.49 477.16 196.738L465.657 200.285C464.688 200.628 463.838 201.24 463.206 202.049C462.575 202.858 462.19 203.831 462.096 204.852C462.086 204.92 462.077 204.988 462.073 205.059C461.976 206.01 462.087 206.97 462.4 207.874C462.486 208.452 462.795 208.973 463.262 209.326C463.729 209.679 464.317 209.836 464.898 209.762L464.935 209.757C465.4 209.697 465.834 209.493 466.175 209.173C466.517 208.854 466.75 208.436 466.841 207.977C467.072 208.317 467.393 208.586 467.768 208.755C468.143 208.924 468.558 208.986 468.966 208.935L469.003 208.93C469.553 208.859 470.057 208.587 470.417 208.166C470.777 207.745 470.967 207.206 470.95 206.653L477.732 205.071L492.346 221.375C492.961 222.059 493.699 222.623 494.522 223.037C494.596 223.075 494.673 223.103 494.748 223.138C496.517 223.965 498.539 224.066 500.382 223.421Z" fill="#9E5C4F"/>
<path opacity="0.38" d="M477.731 205.071L480.844 203.935L479.336 206.772L477.731 205.071Z" fill="#54132A"/>
<path d="M522.51 251.632C519.124 250.554 515.495 250.493 512.074 251.456C508.654 252.419 505.593 254.364 503.273 257.049C503.005 257.366 502.744 257.687 502.491 258.013C498.994 262.6 496.93 268.112 496.556 273.862C496.181 279.611 497.513 285.343 500.385 290.343L506.818 301.752C506.732 301.75 506.648 301.739 506.561 301.739L496.445 301.734C495.365 301.733 494.295 301.944 493.296 302.356C492.298 302.768 491.39 303.372 490.626 304.133C489.861 304.894 489.255 305.798 488.841 306.793C488.427 307.788 488.213 308.855 488.213 309.932L488.212 311.1C488.212 311.369 488.265 311.636 488.368 311.885C488.471 312.134 488.623 312.36 488.814 312.551C489.005 312.741 489.231 312.892 489.481 312.996C489.73 313.099 489.998 313.152 490.268 313.152L504.187 313.16L504.154 313.275H529.664C540.793 313.275 549.815 304.82 549.815 294.389V287.383C549.815 270.788 538.39 256.693 522.51 251.632Z" fill="#A83B3B"/>
<path d="M520.72 311.138L520.721 309.935C520.726 307.76 521.595 305.676 523.138 304.14C524.681 302.603 526.772 301.739 528.952 301.736L539.069 301.742C539.156 301.742 539.24 301.752 539.326 301.755L532.892 290.343C530.03 285.358 528.698 279.644 529.062 273.911C529.426 268.178 531.47 262.677 534.941 258.092C531.2 255.243 526.994 253.058 522.509 251.632C519.124 250.554 515.495 250.493 512.074 251.456C508.654 252.419 505.593 254.364 503.273 257.049C503.005 257.366 502.744 257.687 502.491 258.013C498.994 262.6 496.93 268.112 496.556 273.862C496.181 279.611 497.513 285.343 500.385 290.343L506.818 301.752C506.732 301.75 506.648 301.739 506.561 301.739L496.445 301.734C495.365 301.733 494.295 301.944 493.296 302.356C492.298 302.768 491.39 303.372 490.626 304.133C489.861 304.894 489.255 305.798 488.841 306.793C488.427 307.788 488.213 308.855 488.213 309.932L488.212 311.1C488.212 311.369 488.265 311.636 488.368 311.885C488.471 312.134 488.623 312.36 488.814 312.551C489.005 312.741 489.231 312.892 489.481 312.996C489.73 313.099 489.998 313.152 490.268 313.152L504.187 313.16L504.154 313.275H529.664C530.232 313.275 530.79 313.239 531.346 313.196L522.776 313.191C522.23 313.19 521.707 312.974 521.322 312.589C520.936 312.204 520.72 311.682 520.72 311.138Z" fill="#9E5C4F"/>
<path d="M580.966 248.567C583.375 250.806 585.694 253.12 588.062 255.396C590.589 257.928 592.773 260.779 594.558 263.876C596.374 267.014 597.77 270.376 598.709 273.876C599.179 275.641 599.537 277.434 599.782 279.243C600.012 281.021 600.133 282.996 600.19 284.573C600.244 288.997 598.832 293.315 596.173 296.858C593.7 300.15 590.493 302.823 586.805 304.668C583.297 306.446 579.503 307.597 575.596 308.069L574.149 308.234L572.701 308.296L571.252 308.35L570.025 308.353C568.388 308.365 566.751 308.356 565.114 308.328C563.594 308.304 562.145 307.685 561.078 306.604C560.012 305.524 559.415 304.069 559.415 302.553C559.415 301.038 560.012 299.583 561.078 298.502C562.145 297.422 563.594 296.803 565.114 296.779C566.751 296.753 568.388 296.744 570.025 296.754L571.252 296.757L572.257 296.718L573.262 296.687L574.254 296.571C576.867 296.315 579.423 295.644 581.824 294.585C586.522 292.485 589.978 288.688 590.249 284.533C590.346 282.846 590.388 281.555 590.354 280.079C590.295 278.637 590.156 277.2 589.938 275.773C589.495 272.882 588.703 270.054 587.58 267.352C586.436 264.598 584.973 261.986 583.221 259.571C581.304 256.91 579.338 254.289 577.463 251.591C577.135 251.12 576.994 250.544 577.066 249.976C577.138 249.407 577.418 248.885 577.853 248.51C578.287 248.135 578.846 247.933 579.42 247.944C579.995 247.954 580.546 248.176 580.966 248.567L580.966 248.567Z" fill="#A83B3B"/>
<path d="M580.966 248.567C583.375 250.806 585.694 253.12 588.062 255.396C590.589 257.928 592.773 260.779 594.558 263.876C596.374 267.014 597.77 270.376 598.709 273.876C599.179 275.641 599.537 277.434 599.782 279.243C600.012 281.021 600.133 282.996 600.19 284.573C600.244 288.997 598.832 293.315 596.173 296.858C593.7 300.15 590.493 302.823 586.805 304.668C583.297 306.446 579.503 307.597 575.596 308.069L574.149 308.234L572.701 308.296L571.252 308.35L570.025 308.353C568.388 308.365 566.751 308.356 565.114 308.328C563.594 308.304 562.145 307.685 561.078 306.604C560.012 305.524 559.415 304.069 559.415 302.553C559.415 301.038 560.012 299.583 561.078 298.502C562.145 297.422 563.594 296.803 565.114 296.779C566.751 296.753 568.388 296.744 570.025 296.754L571.252 296.757L572.257 296.718L573.262 296.687L574.254 296.571C576.867 296.315 579.423 295.644 581.824 294.585C586.522 292.485 589.978 288.688 590.249 284.533C590.346 282.846 590.388 281.555 590.354 280.079C590.295 278.637 590.156 277.2 589.938 275.773C589.495 272.882 588.703 270.054 587.58 267.352C586.436 264.598 584.973 261.986 583.221 259.571C581.304 256.91 579.338 254.289 577.463 251.591C577.135 251.12 576.994 250.544 577.066 249.976C577.138 249.407 577.418 248.885 577.853 248.51C578.287 248.135 578.846 247.933 579.42 247.944C579.995 247.954 580.546 248.176 580.966 248.567L580.966 248.567Z" fill="#9E5C4F"/>
<path d="M574.048 265.819C572.453 263.256 570.634 260.84 568.611 258.597L554.714 243.201L537.377 210.993L535.712 191.528L537.162 179.757C537.389 177.913 536.967 176.047 535.968 174.478C535.65 168.208 534.19 162.048 531.659 156.3C531.48 155.904 531.191 155.566 530.826 155.328C530.461 155.09 530.036 154.96 529.6 154.955C529.164 154.95 528.735 155.069 528.365 155.299C527.995 155.529 527.698 155.859 527.51 156.251L521.515 168.666L520.131 168.335C517.237 167.67 514.197 168.127 511.629 169.613L508.856 171.25L498.693 177.25L482.027 174.718C481.32 174.611 480.599 174.648 479.907 174.829C479.216 175.01 478.569 175.329 478.005 175.768C477.442 176.207 476.975 176.756 476.633 177.382C476.29 178.007 476.079 178.696 476.013 179.406C475.672 183.078 476.662 186.75 478.805 189.756C480.947 192.762 484.099 194.902 487.689 195.789L504.198 199.863L500.579 214.317C498.716 216.39 497.287 218.814 496.375 221.446L481.559 210.425C480.576 209.672 479.427 209.162 478.208 208.938C476.989 208.714 475.733 208.781 474.545 209.135L458.178 214.182C456.799 214.669 455.589 215.54 454.691 216.692C453.793 217.843 453.245 219.227 453.111 220.68C453.097 220.778 453.083 220.874 453.079 220.975C452.94 222.328 453.098 223.694 453.543 224.98C453.665 225.803 454.106 226.544 454.771 227.047C455.435 227.549 456.271 227.772 457.098 227.667L457.151 227.66C457.812 227.575 458.429 227.284 458.916 226.83C459.402 226.375 459.733 225.78 459.862 225.127C460.191 225.61 460.648 225.993 461.182 226.234C461.715 226.474 462.305 226.563 462.886 226.49L462.939 226.484C463.722 226.383 464.439 225.995 464.951 225.396C465.463 224.797 465.733 224.03 465.71 223.244L475.359 220.992L496.155 244.192C497.03 245.165 498.08 245.968 499.251 246.557L502.223 258.868L505.608 283.989C506.84 293.125 512.652 300.972 520.894 305.652C520.094 306.938 519.669 308.421 519.668 309.934L519.667 311.138C519.667 311.682 519.884 312.204 520.269 312.589C520.655 312.973 521.178 313.19 521.723 313.19L530.293 313.195L531.535 313.196L535.631 313.198L535.609 313.275H561.119C572.248 313.275 581.27 304.819 581.27 294.389V287.383C581.259 279.606 578.725 272.042 574.048 265.819Z" fill="#B7624E"/>
<path d="M518.745 168.103C518.707 167.981 518.647 167.866 518.569 167.764L513.433 161.253C513.211 160.972 512.912 160.761 512.572 160.648C512.232 160.534 511.865 160.522 511.519 160.613C511.172 160.704 510.859 160.895 510.619 161.161C510.379 161.427 510.223 161.757 510.169 162.11L508.835 170.841C508.816 170.978 508.823 171.116 508.855 171.25L511.629 169.613C513.773 168.351 516.272 167.821 518.745 168.103Z" fill="#914A41"/>
<path d="M525.304 168.922L528.059 163.411C528.176 163.176 528.358 162.979 528.583 162.843C528.809 162.708 529.069 162.639 529.332 162.646C529.595 162.652 529.851 162.734 530.069 162.881C530.288 163.028 530.459 163.234 530.564 163.475C531.775 166.289 533.334 170.899 532.607 174.723L528.243 172.574" fill="#914A41"/>
<path d="M481.314 180.577L485.13 175.608C485.062 175.4 484.994 175.218 484.926 175.019L482.139 174.596C481.432 174.488 480.711 174.526 480.019 174.707C479.328 174.887 478.681 175.207 478.117 175.646C477.554 176.085 477.087 176.634 476.745 177.26C476.402 177.885 476.191 178.574 476.125 179.284C475.995 180.678 476.056 182.084 476.306 183.462L479.495 182.019C480.211 181.695 480.836 181.2 481.314 180.577Z" fill="#721C37"/>
<path d="M509.113 181.794C508.843 181.95 508.533 182.022 508.221 182.002C507.91 181.981 507.611 181.869 507.364 181.68C507.116 181.49 506.931 181.232 506.83 180.937C506.73 180.643 506.72 180.325 506.8 180.024C506.881 179.724 507.05 179.454 507.284 179.249C507.519 179.044 507.809 178.912 508.119 178.872C508.428 178.831 508.743 178.883 509.022 179.021C509.302 179.158 509.535 179.376 509.691 179.645C509.795 179.824 509.862 180.022 509.889 180.226C509.916 180.431 509.902 180.639 509.849 180.839C509.795 181.039 509.702 181.226 509.576 181.39C509.45 181.553 509.293 181.691 509.113 181.794Z" fill="#390028"/>
<path d="M515.237 181.031C514.809 180.722 514.467 180.31 514.242 179.834C513.96 179.356 513.662 178.886 513.387 178.488C513.111 178.089 512.775 177.645 512.427 177.213C512.061 176.834 511.796 176.369 511.658 175.861C511.596 175.398 511.999 174.91 512.893 174.887C513.52 174.921 514.13 175.104 514.672 175.421C515.214 175.737 515.673 176.179 516.009 176.708C516.385 177.206 516.635 177.788 516.738 178.403C516.841 179.018 516.794 179.649 516.6 180.242C516.255 181.059 515.651 181.256 515.237 181.031Z" fill="#914A41"/>
<g opacity="0.49">
<path opacity="0.49" d="M492.255 194.237C491.853 194.236 491.453 194.176 491.069 194.057L478.565 190.207C478.431 190.166 478.32 190.074 478.255 189.951C478.19 189.828 478.176 189.684 478.217 189.551C478.258 189.418 478.351 189.307 478.474 189.242C478.598 189.177 478.742 189.164 478.875 189.205L491.38 193.055C492.134 193.283 492.948 193.208 493.647 192.844C494.346 192.48 494.873 191.857 495.116 191.109L495.327 190.449C495.369 190.317 495.463 190.206 495.587 190.143C495.711 190.079 495.856 190.067 495.989 190.109C496.122 190.151 496.233 190.245 496.297 190.369C496.361 190.493 496.373 190.637 496.33 190.769L496.119 191.429C495.855 192.244 495.339 192.955 494.645 193.459C493.951 193.964 493.114 194.236 492.255 194.237Z" fill="#390028"/>
</g>
<path d="M488.095 179.953C488.077 180.072 488.023 180.183 487.942 180.272C487.86 180.361 487.754 180.424 487.637 180.453C487.519 180.482 487.396 180.475 487.282 180.434C487.168 180.393 487.069 180.319 486.998 180.222C486.926 180.125 486.885 180.009 486.88 179.888C486.874 179.768 486.905 179.648 486.967 179.545C487.03 179.442 487.122 179.36 487.231 179.308C487.341 179.257 487.463 179.24 487.583 179.258C487.743 179.282 487.887 179.369 487.983 179.499C488.079 179.63 488.119 179.793 488.095 179.953Z" fill="#441B14"/>
<path d="M484.342 182.844C484.318 182.921 484.271 182.989 484.207 183.039C484.144 183.089 484.067 183.12 483.987 183.127C483.906 183.134 483.825 183.117 483.754 183.078C483.683 183.039 483.626 182.979 483.588 182.908C483.551 182.836 483.536 182.755 483.545 182.675C483.554 182.594 483.587 182.519 483.639 182.457C483.691 182.395 483.761 182.35 483.838 182.328C483.916 182.305 483.999 182.307 484.076 182.331C484.127 182.347 484.175 182.373 484.216 182.408C484.257 182.442 484.291 182.485 484.316 182.532C484.34 182.58 484.355 182.632 484.36 182.685C484.364 182.739 484.358 182.793 484.342 182.844Z" fill="#441B14"/>
<path d="M508.066 183.675C508.046 183.675 508.025 183.674 508.005 183.672C507.866 183.656 507.74 183.586 507.653 183.477C507.566 183.368 507.526 183.229 507.541 183.09C507.746 181.298 505.787 180.979 505.563 180.949C505.425 180.931 505.3 180.858 505.216 180.748C505.131 180.637 505.094 180.498 505.112 180.36C505.131 180.223 505.203 180.098 505.313 180.013C505.423 179.928 505.563 179.89 505.701 179.908C506.813 180.052 508.848 180.927 508.588 183.209C508.573 183.337 508.512 183.455 508.416 183.541C508.32 183.627 508.195 183.674 508.066 183.675Z" fill="#54132A"/>
<path opacity="0.57" d="M531.535 313.196L531.512 313.275H535.609L535.631 313.199L531.535 313.196Z" fill="#54132A"/>
<path opacity="0.4" d="M475.358 220.993L479.788 219.377L477.641 223.414L475.358 220.993Z" fill="#54132A"/>
<path d="M517.671 273.552C516.321 264.263 512.004 254.798 507.589 247.104C506.234 247.58 504.797 247.777 503.363 247.683C501.93 247.59 500.531 247.207 499.25 246.558L502.222 258.869L505.608 283.99C506.218 288.405 507.882 292.61 510.459 296.252C512.726 298.866 514.694 300.931 516.047 302.298C516.697 302.838 517.369 303.354 518.065 303.847C518.507 302 520.413 292.415 517.671 273.552Z" fill="#914A41"/>
<path opacity="0.4" d="M511.367 244.782C509.825 246.254 507.872 247.225 505.766 247.567C503.659 247.909 501.498 247.607 499.568 246.7L500.033 248.627C501.421 249.563 503.115 249.937 504.769 249.672L508.129 249.121C509.154 248.952 510.123 248.539 510.953 247.917C511.784 247.295 512.451 246.481 512.898 245.546L514.855 241.452L511.367 244.782Z" fill="#54132A"/>
<path opacity="0.4" d="M496.304 221.326L502.522 226.547C503.055 226.995 503.732 227.238 504.429 227.233C505.127 227.227 505.799 226.974 506.326 226.517L511.276 222.229C513.112 220.638 515.383 219.63 517.798 219.333C520.212 219.036 522.661 219.465 524.83 220.564L530.545 223.46L524.45 218.221C522.704 216.721 520.47 215.906 518.166 215.931C515.862 215.956 513.646 216.817 511.933 218.354L506.097 223.65C505.636 224.069 505.062 224.343 504.446 224.44C503.829 224.536 503.199 224.451 502.631 224.193L496.304 221.326Z" fill="#54132A"/>
<path d="M534.115 215.215L534.959 221.833C535.793 228.376 538.642 234.499 543.113 239.36C547.584 244.221 553.457 247.579 559.922 248.972L554.714 243.202L537.377 210.994L535.712 191.529L535.74 191.304L535.512 190.816L533.987 209.704C533.839 211.541 533.882 213.387 534.115 215.215Z" fill="#914A41"/>
<path d="M504.198 199.864L512.511 200.632L501.011 212.375L504.198 199.864Z" fill="#914A41"/>
<path d="M527.9 301.736L538.016 301.741C538.103 301.741 538.187 301.752 538.273 301.755L531.839 290.343C528.968 285.343 527.636 279.611 528.01 273.861C528.385 268.112 530.449 262.6 533.945 258.012C534.199 257.687 534.459 257.366 534.727 257.049H534.727C537.693 253.591 541.872 251.394 546.409 250.906C543.475 250.566 540.503 250.948 537.753 252.019C535.002 253.089 532.556 254.816 530.631 257.049C530.363 257.366 530.102 257.687 529.848 258.012C526.352 262.599 524.288 268.112 523.914 273.861C523.539 279.611 524.871 285.343 527.743 290.342L533.477 300.513L528.71 300.51C527.217 300.509 525.753 300.913 524.473 301.678C523.193 302.444 522.147 303.542 521.445 304.856C522.214 303.882 523.194 303.096 524.312 302.555C525.43 302.015 526.657 301.734 527.9 301.736Z" fill="#914A41"/>
</svg>
